<svg xmlns="http://www.w3.org/2000/svg" viewBox="0 0 512 512" style="height: 512px; width: 512px;"><path d="M50 50h412v412H50z" fill="#ffffff" fill-opacity="1" stroke="#ffffff" stroke-opacity="0" stroke-width="50"></path><g class="" transform="translate(0,0)" style=""><path d="M74.5 36A38.5 38.5 0 0 0 36 74.5v363A38.5 38.5 0 0 0 74.5 476h363a38.5 38.5 0 0 0 38.5-38.5v-363A38.5 38.5 0 0 0 437.5 36h-363zM256 206a50 50 0 0 1 0 100 50 50 0 0 1 0-100z" fill="#fff" fill-opacity="1"></path></g><g font-family="Arial, Helvetica, sans-serif" font-size="200" font-style="normal" font-weight="bold" text-anchor="middle" text-decoration=" rgba(0, 0, 0, 0.5)" class="" transform="translate(254,320)" style=""><g><text stroke="rgba(255, 255, 255, 1)" stroke-width="50"><tspan x="0" y="0">?</tspan></text><text fill="rgba(0, 0, 0, 0.5)"><tspan x="0" y="0">?</tspan></text></g></g></svg>