<svg xmlns="http://www.w3.org/2000/svg" viewBox="0 0 512 512" style="height: 512px; width: 512px;"><path d="M50 50h412v412H50z" fill="#000" fill-opacity="1" stroke="#ffffff" stroke-opacity="0" stroke-width="50"></path><g class="" transform="translate(0,0)" style=""><g><path d="M74.5 36C53.237 36 36 53.237 36 74.5L36 437.5C36 458.763 53.237 476 74.5 476L437.5 476C458.763 476 476 458.763 476 437.5L476 74.5C476 53.237 458.763 36 437.5 36L74.5 36Z" class="selected" fill="#fff" fill-opacity="1"></path><path d="M256 206C294.49 206 318.546 247.667 299.301 281C290.37 296.47 273.863 306 256 306C217.51 306 193.454 264.333 212.699 231C221.63 215.53 238.137 206 256 206Z" class="" fill="#ffffff" fill-opacity="1"></path></g></g><g font-family="Arial, Helvetica, sans-serif" font-size="200" font-style="normal" font-weight="bold" text-anchor="middle" text-decoration=" rgba(255, 255, 255, 1)" class="" transform="translate(254,320)" style=""><g><text stroke="rgba(0, 0, 0, 0.42)" stroke-width="50"><tspan x="0" y="0">?</tspan></text><text fill="rgba(255, 255, 255, 1)"><tspan x="0" y="0">?</tspan></text></g></g></svg>